# xmcd CD database file
#
# Track frame offsets:
#	150
#	40680
#	49492
#	64824
#	94906
#	114020
#	142152
#	173589
#	180100
#	212078
#	219364
#	234156
#	269246
#	291868
#	304004
#
# Disc length: 4233 seconds
#
# Revision: 0
# Processed by: cddbd v1.5.2PL0 Copyright (c) Steve Scherf et al.
# Submitted via: CDex 1.51
#
DISCID=d710870f
DTITLE=Heinz Sauer  - The Journey
DYEAR=2008
DGENRE=Jazz
TTITLE0=Now Jazz Ramwong
TTITLE1=Nachwort
TTITLE2=Blues Booth
TTITLE3=Round About Midnight
TTITLE4=Sagma
TTITLE5=Lush Life
TTITLE6=Blues, Eternal Turn Off
TTITLE7=Darauf der Schnee danach
TTITLE8=Chelsea Bridge
TTITLE9=Winterballade
TTITLE10=Küss die Hand, Madame
TTITLE11=The Narrator
TTITLE12=Roses Are Black
TTITLE13=Nothing Compares 2 U
TTITLE14=Variations On Redford
EXTD=YEAR: 2008
EXTT0=
EXTT1=
EXTT2=
EXTT3=
EXTT4=
EXTT5=
EXTT6=
EXTT7=
EXTT8=
EXTT9=
EXTT10=
EXTT11=
EXTT12=
EXTT13=
EXTT14=
PLAYORDER=
